<svg width="78" height="124" viewBox="0 0 78 124" fill="none" xmlns="http://www.w3.org/2000/svg">
<path d="M31.9426 36.2638C28.1181 36.9378 25.3194 39.8905 24.8358 43.7589C24.7919 44.1472 24.7625 49.7008 24.7625 59.709V75.0582L24.235 74.4721C23.3851 73.5123 21.3264 71.5048 20.667 70.9919C19.3335 69.9442 17.8316 69.087 16.7033 68.7207C15.4211 68.3104 13.9338 68.2591 12.3879 68.5742C10.5416 68.9478 9.3327 69.6805 8.33628 71.0213C6.73175 73.1753 6.50462 76.04 7.6549 79.4176C9.54517 84.9711 15.5457 96.5765 19.9197 103.156C21.3777 105.346 22.7624 107.207 24.323 109.09C28.8508 114.534 30.111 116.981 30.3234 120.74C30.404 122.198 30.5359 122.564 31.166 123.201C31.4811 123.516 31.7448 123.7 32.0525 123.824L32.4921 124H50.8453H69.1985L69.6381 123.824C70.2462 123.575 70.9056 122.916 71.14 122.315C71.2866 121.927 71.3159 121.692 71.3671 120.19C71.5503 114.673 72.0046 111.896 74.1439 103.229C75.8877 96.1296 76.4079 93.4993 76.8475 89.5649C77.1625 86.7442 77.1845 86.0701 77.1845 79.4176C77.1845 73.483 77.1772 72.9628 77.0526 72.3987C76.7742 71.1531 76.3932 70.2373 75.7192 69.2336C74.393 67.248 72.4075 65.9805 69.9824 65.5629C68.627 65.3358 67.5207 65.3871 66.092 65.7681C65.7037 65.8633 65.3447 65.9512 65.2934 65.9586C65.2348 65.9659 65.1469 65.8267 65.0809 65.6435C64.6926 64.4786 63.9013 63.1818 63.0148 62.2513C61.2491 60.3977 58.9266 59.4745 56.3036 59.5917C54.9042 59.6503 53.8785 59.9288 52.992 60.4856L52.6183 60.7274L52.2593 60.2365C51.4827 59.1814 50.6988 58.4781 49.4752 57.7454C48.4129 57.108 46.6398 56.6318 45.3064 56.6318C44.5298 56.6318 43.2623 56.8809 42.449 57.1959C42.3611 57.2252 42.3464 56.2435 42.3464 50.7925C42.3464 46.8507 42.3171 44.1252 42.2732 43.7589C41.9654 41.3411 40.7346 39.2164 38.8077 37.7731C36.998 36.4323 34.3311 35.8462 31.9426 36.2638ZM34.4703 42.2057C35.0711 42.4255 35.7305 43.0922 35.9796 43.7003L36.1554 44.1399L36.1921 58.0971L36.2287 72.0543L36.4045 72.4939C36.6463 73.102 37.313 73.7614 37.9138 73.9959C38.2802 74.1424 38.4853 74.1717 39.1227 74.1717C39.7601 74.1717 39.9653 74.1424 40.3316 73.9959C40.9324 73.7614 41.5991 73.102 41.8409 72.4939C42.0167 72.0543 42.0167 72.047 42.0534 68.3544C42.09 64.6617 42.09 64.6544 42.2658 64.2148C42.5076 63.6067 43.1743 62.9473 43.7751 62.7129C44.1414 62.5663 44.3466 62.537 44.984 62.537C45.6214 62.537 45.8266 62.5663 46.1929 62.7129C46.7937 62.9473 47.4604 63.6067 47.7022 64.2148L47.878 64.6544L47.9147 69.8197L47.9513 74.985L48.1271 75.4245C48.3689 76.0327 49.0356 76.6921 49.6364 76.9265C50.0027 77.073 50.2079 77.1023 50.8453 77.1023C51.4827 77.1023 51.6879 77.073 52.0542 76.9265C52.655 76.6921 53.3217 76.0327 53.5635 75.4245C53.7393 74.985 53.7393 74.9776 53.7759 71.285C53.8126 67.5924 53.8126 67.5851 53.9884 67.1455C54.2302 66.5374 54.8969 65.878 55.4977 65.6435C55.864 65.497 56.0692 65.4677 56.7066 65.4677C57.344 65.4677 57.5492 65.497 57.9155 65.6435C58.5163 65.878 59.183 66.5374 59.4248 67.1455L59.6006 67.5851L59.6372 72.7503L59.6739 77.9156L59.8497 78.3552C60.0915 78.9633 60.7582 79.6227 61.359 79.8571C61.9891 80.1063 63.1467 80.1063 63.7768 79.8571C64.3776 79.6227 65.0443 78.956 65.2787 78.3552C65.4472 77.9376 65.4546 77.7984 65.4985 75.681C65.5498 73.0068 65.5865 72.8749 66.3338 72.1202C66.9565 71.4975 67.4034 71.329 68.4292 71.329C69.0666 71.329 69.2717 71.3583 69.6381 71.5048C70.2388 71.7393 70.9056 72.3987 71.1473 73.0068L71.3232 73.4464V79.4542C71.3232 85.8137 71.3012 86.3852 70.9569 89.1253C70.6125 91.8288 70.1143 94.3199 69.0812 98.54C67.2569 105.977 66.2751 110.666 65.8722 113.926C65.7403 114.981 65.4985 117.633 65.4985 118.036C65.4985 118.175 65.2494 118.175 50.7061 118.175H35.9137L35.8257 117.64C35.2836 114.278 33.7523 111.537 30.2282 107.632C28.5797 105.808 25.7297 102.042 24.3523 99.8735C23.3778 98.3349 21.2238 94.7228 20.2787 93.0451C17.0623 87.3156 14.1536 81.2932 13.0546 78.0988C12.681 77.0071 12.5711 76.399 12.5637 75.4758V74.7139L12.7982 74.5087C13.2085 74.1424 14.3294 74.1131 15.0914 74.4501C16.8718 75.2487 19.5607 78.0108 21.6487 81.1759C22.6964 82.7731 23.3265 83.9088 24.1251 85.6745L24.4255 86.3412L24.4695 87.9897C24.5281 90.0045 24.594 90.2536 25.3047 90.9643C25.9275 91.5871 26.3744 91.7556 27.4001 91.7556C28.0375 91.7556 28.2427 91.7263 28.609 91.5797C29.2098 91.3453 29.8765 90.6859 30.1183 90.0778L30.2941 89.6382L30.3308 66.889L30.3674 44.1399L30.5359 43.7223C30.7337 43.2387 31.2393 42.638 31.6789 42.3815C32.4189 41.9492 33.5984 41.8687 34.4703 42.2057Z" fill="black"/>
<path d="M3 16.459L20.7049 34.1639" stroke="black" stroke-width="5.2459" stroke-linecap="round" stroke-linejoin="round"/>
<path d="M62.0164 16.459L44.3114 34.1639" stroke="black" stroke-width="5.2459" stroke-linecap="round" stroke-linejoin="round"/>
<path d="M33.2242 4V29.0385" stroke="black" stroke-width="5.2459" stroke-linecap="round" stroke-linejoin="round"/>
</svg>
