<svg width="132" height="114" viewBox="0 0 132 114" fill="none" xmlns="http://www.w3.org/2000/svg">
<path d="M54.5564 58.9698H47.4142L45.9402 63.7268H41.344L48.7274 41.657H53.2432L60.6266 63.7268H56.0304L54.5564 58.9698ZM48.4862 55.526H53.4844L51.0188 47.7272H50.9384L48.4862 55.526ZM67.1926 55.6868V63.6464H62.7572V41.6704H71.1992C73.7452 41.6704 75.715 42.327 77.189 43.6402C78.663 44.9534 79.4 46.5882 79.4 48.7322C79.4 50.8628 78.663 52.511 77.189 53.8242C75.715 55.1374 73.7452 55.7136 71.1992 55.7136H67.1926V55.6868ZM67.1926 52.3234H71.2126C72.4454 52.3234 73.3432 52.0018 73.9998 51.3452C74.6564 50.6886 74.978 49.7908 74.978 48.7992C74.978 47.7272 74.6564 46.8294 73.9998 46.1728C73.3432 45.5162 72.4454 45.1008 71.2126 45.1008H67.1926V52.3234ZM87.1988 63.7268H82.7634V41.657H87.1988V63.7268ZM131.66 59.7068C131.66 72.5842 121.154 83.0898 108.277 83.0898H84.4116C82.9376 83.0898 81.7852 81.9374 81.7852 80.4634C81.7852 78.9894 82.9376 77.837 84.4116 77.837H108.277C118.287 77.837 126.407 69.7166 126.407 59.7068C126.407 49.7774 118.287 41.657 108.357 41.5766C108.277 41.5766 108.277 41.5766 108.197 41.5766C107.46 41.5766 106.723 41.255 106.146 40.6788C105.651 40.1026 105.409 39.3656 105.49 38.6286C105.651 37.235 105.731 36.0826 105.731 35.024C105.731 27.2252 102.689 19.8552 97.1952 14.3478C91.7012 8.8404 84.3312 5.812 76.5458 5.812C70.4756 5.812 64.6466 7.7014 59.6484 11.2256C54.811 14.6694 51.2064 19.4264 49.0624 25.0008C48.7408 25.8182 47.9904 26.4748 47.173 26.6356C46.2752 26.7964 45.364 26.5552 44.7074 25.8986C42.2418 23.433 38.9722 22.0394 35.4346 22.0394C28.212 22.0394 22.316 27.9488 22.316 35.158C22.316 35.158 22.316 35.3188 22.316 35.3992C22.316 35.4796 22.316 35.6404 22.316 35.7208C22.3964 36.9536 21.579 38.0122 20.3462 38.3472C16.1654 39.4996 12.3866 42.0322 9.76023 45.4894C7.05343 49.0136 5.57943 53.2882 5.57943 57.7906C5.57943 68.859 14.5976 77.8906 25.6794 77.8906H47.575C49.049 77.8906 50.2014 79.043 50.2014 80.517C50.2014 81.991 49.049 83.1434 47.575 83.1434H25.7732C11.7434 83.1702 0.340027 71.7668 0.340027 57.737C0.340027 52.0018 2.14903 46.6686 5.67323 42.1528C8.62123 38.374 12.6412 35.426 17.0766 33.7912C17.7332 24.2772 25.6928 16.733 35.448 16.733C39.133 16.733 42.5902 17.805 45.5382 19.7614C48.0842 14.589 51.8496 10.2474 56.5262 6.884C62.3552 2.7032 69.2428 0.572601 76.452 0.572601C85.6444 0.572601 94.3276 4.1772 100.894 10.6628C107.46 17.2288 110.984 25.8316 110.984 35.1044C110.984 35.6002 110.984 36.0826 110.984 36.5784C122.561 37.8112 131.66 47.7272 131.66 59.7068ZM80.9678 90.5536C80.472 91.0494 79.8154 91.2906 79.0784 91.2906C78.4218 91.2906 77.7652 91.0494 77.189 90.5536L68.5728 81.9374V110.238C68.5728 111.712 67.4204 113.441 66.0268 113.441C64.5528 113.441 63.32 111.712 63.32 110.238V81.9374L54.7038 90.5536C53.6318 91.6256 51.997 91.6256 51.0188 90.5536C49.9468 89.4816 49.9468 87.8468 51.0188 86.8686L64.1374 73.75C65.2094 72.678 66.8442 72.678 67.8224 73.75L80.941 86.8686C81.9594 87.8468 81.9594 89.4816 80.9678 90.5536Z" fill="black"/>
</svg>
