<svg width="67" height="66" viewBox="0 0 67 66" fill="none" xmlns="http://www.w3.org/2000/svg">
<path fill-rule="evenodd" clip-rule="evenodd" d="M19.5428 42.315V33.8933L0.933105 52.503V60.9247L19.5428 42.315ZM4.83523 65.4444H13.257L31.8667 46.8347H23.4449L4.83523 65.4444ZM19.5428 8.62793V0.310486H19.4385L0.933105 18.8158V27.2376L19.5428 8.62793ZM0.933105 35.6594V44.0812L19.5428 25.4715V17.0497L0.933105 35.6594ZM66.067 65.4444H55.3659L66.067 54.7433V65.4444ZM21.6788 65.4444H30.1006L48.7103 46.8347H40.2885L21.6788 65.4444ZM46.9441 65.4444H38.5224L57.132 46.8347H65.5538L46.9441 65.4444ZM11.0167 0.310486H0.933105V10.3941L11.0167 0.310486Z" fill="#F9F871"/>
</svg>
