<svg width="162" height="125" viewBox="0 0 162 125" fill="none" xmlns="http://www.w3.org/2000/svg">
<path d="M83.395 1.04712C82.3164 -0.0314407 80.5677 -0.0314407 79.4892 1.04712L61.9131 18.6232C60.8346 19.7017 60.8346 21.4504 61.9131 22.5289C62.9917 23.6075 64.7404 23.6075 65.8189 22.5289L81.4421 6.9058L97.0652 22.5289C98.1438 23.6075 99.8925 23.6075 100.971 22.5289C102.05 21.4504 102.05 19.7017 100.971 18.6232L83.395 1.04712ZM84.2039 61.9186V3.00001H78.6803V61.9186H84.2039Z" fill="black"/>
<path d="M147.96 31.8817C147.96 30.3564 146.724 29.1199 145.198 29.1199L120.342 29.1199C118.817 29.1199 117.58 30.3564 117.58 31.8817C117.58 33.407 118.817 34.6435 120.342 34.6435L142.437 34.6435L142.437 56.738C142.437 58.2633 143.673 59.4998 145.198 59.4998C146.724 59.4998 147.96 58.2633 147.96 56.738L147.96 31.8817ZM105.49 75.4963L147.151 33.8346L143.245 29.9288L101.584 71.5905L105.49 75.4963Z" fill="black"/>
<path d="M17 29.6975C15.4747 29.6975 14.2382 30.934 14.2382 32.4593L14.2382 57.3156C14.2382 58.8409 15.4747 60.0774 17 60.0774C18.5253 60.0774 19.7618 58.8409 19.7618 57.3156L19.7618 35.2211L41.8563 35.2211C43.3816 35.2211 44.6181 33.9846 44.6181 32.4593C44.6181 30.934 43.3816 29.6975 41.8563 29.6975L17 29.6975ZM60.6146 72.1681L18.9529 30.5064L15.0471 34.4122L56.7088 76.0739L60.6146 72.1681Z" fill="black"/>
<path d="M70.5963 111.592C69.0571 113.462 66.9282 114.397 64.2096 114.397C61.7067 114.397 59.7936 113.678 58.4702 112.24C57.1612 110.801 56.4923 108.694 56.4636 105.918V90.6199H62.6992V105.702C62.6992 108.133 63.8068 109.348 66.022 109.348C68.1365 109.348 69.5894 108.615 70.3805 107.148V90.6199H76.6377V113.966H70.7689L70.5963 111.592ZM94.46 96.4672C93.6114 96.3521 92.8634 96.2946 92.2161 96.2946C89.857 96.2946 88.3107 97.0929 87.5771 98.6896V113.966H81.3414V90.6199H87.2319L87.4045 93.4033C88.6559 91.26 90.3892 90.1884 92.6044 90.1884C93.2949 90.1884 93.9422 90.2819 94.5463 90.4689L94.46 96.4672ZM104.062 113.966H97.8044V80.8241H104.062V113.966Z" fill="black"/>
</svg>
